<svg aria-hidden="true" style="width:0;height:0;position:absolute;overflow:hidden" xmlns="http://www.w3.org/2000/svg"><defs><symbol id="icon-made" viewBox="0 0 30 32"><path fill="#f5f4f4" style="fill:var(--color1,#f5f4f4)" d="M0 32V0l29.867 16L0 32z"/></symbol><symbol id="icon-close" viewBox="0 0 28 28"><path d="M21 7 7 21M7 7l14 14" stroke-width="2" stroke-linecap="round" stroke-linejoin="round"/></symbol><symbol id="icon-close-gradient" viewBox="0 0 16 16"><path d="m12 4-8 8" stroke="url('#paint0_linear_34_4366')" stroke-width="1.5" stroke-linecap="round" stroke-linejoin="round"/><path d="m4 4 8 8" stroke="url('#paint1_linear_34_4366')" stroke-width="1.5" stroke-linecap="round" stroke-linejoin="round"/><defs><linearGradient id="paint0_linear_34_4366" x1="8.035" y1="4" x2="7.761" y2="11.992" gradientUnits="userSpaceOnUse"><stop stop-color="#F16529"/><stop offset="1" stop-color="#D44528"/></linearGradient><linearGradient id="paint1_linear_34_4366" x1="8.035" y1="4" x2="7.761" y2="11.992" gradientUnits="userSpaceOnUse"><stop stop-color="#F16529"/><stop offset="1" stop-color="#D44528"/></linearGradient></defs></symbol></defs></svg><svg aria-hidden="true" style="width:0;height:0;position:absolute;overflow:hidden" xmlns="http://www.w3.org/2000/svg"><defs><symbol id="icon-chocolate" viewBox="0 0 27 32"><path fill="none" stroke="#fd9222" style="stroke:var(--color1,#fd9222)" stroke-linejoin="round" stroke-linecap="round" stroke-width="2.743" d="M20.111 23.118 5.924 14.254m3.914-6.417 14.185 8.864M9.105 25.102l11.738-19.25m4.81 8.175c-3.04-1.897-4.235-3.383-2.278-6.59l-9.626-6.016-11.738 19.25 14.187 8.864 9.452-15.508z"/></symbol><symbol id="icon-menu" viewBox="0 0 48 32"><path stroke-linejoin="round" stroke-linecap="round" stroke-width="4" d="M3 16.006h42m-42-14h42m-42 28h42"/></symbol><symbol id="icon-close" viewBox="0 0 32 32"><path fill="none" stroke="#fff" style="stroke:var(--color2,#fff)" stroke-linejoin="round" stroke-linecap="round" stroke-width="4" d="M29.345 2.667 2.667 29.345m0-26.678 26.678 26.678"/></symbol><symbol id="icon-instagram" viewBox="0 0 32 32"><path fill="none" stroke="#fff" style="stroke:var(--color2,#fff)" stroke-linejoin="round" stroke-linecap="round" stroke-width="2.182" d="M22.673 2.667H9.336a6.668 6.668 0 0 0-6.668 6.668v13.339a6.668 6.668 0 0 0 6.668 6.668h13.339a6.668 6.668 0 0 0 6.668-6.668v-.002 0V9.335a6.668 6.668 0 0 0-6.668-6.668h-.002 0z"/><path fill="none" stroke="#fff" style="stroke:var(--color2,#fff)" stroke-linejoin="round" stroke-linecap="round" stroke-width="2.182" d="M21.34 15.164a5.336 5.336 0 0 1-10.552 1.596l-.004-.03a5.335 5.335 0 0 1 10.551-1.593l.004.03z"/><path fill="none" stroke="#fff" style="stroke:var(--color2,#fff)" stroke-linejoin="round" stroke-linecap="round" stroke-width="2.182" d="M21.34 15.164a5.336 5.336 0 0 1-10.552 1.596l-.004-.03a5.335 5.335 0 0 1 10.551-1.593l.004.03zm2-6.495h.015m-.015 0h.015"/></symbol><symbol id="icon-x" viewBox="0 0 38 32"><path fill="none" stroke="#fff" style="stroke:var(--color2,#fff)" stroke-linejoin="round" stroke-linecap="round" stroke-width="3.2" d="M36.8 1.61a17.22 17.22 0 0 1-4.9 2.415l-.124.033A7.168 7.168 0 0 0 19.2 8.863v-.005 1.6a16.986 16.986 0 0 1-8.207-1.86l.096.045c-2.512-1.264-5.472-4.275-7.09-6.576 0 0-5.6 15.544 8.8 21.944-2.931 2.013-6.555 3.215-10.46 3.215-.26 0-.519-.005-.777-.016l.037.001c14.4 8 32 0 32-18.4 0-.446-.045-.89-.128-1.328a12.339 12.339 0 0 0 3.31-5.787l.018-.085z"/></symbol></defs></svg>