<svg aria-hidden="true" style="position: absolute; width: 0; height: 0; overflow: hidden;" version="1.1" xmlns="http://www.w3.org/2000/svg" xmlns:xlink="http://www.w3.org/1999/xlink">
	<defs>
		<symbol id="icon-footer-instagram" viewBox="0 0 32 32">
			<path fill="none" stroke="#fff" style="stroke: var(--color1, #fff)" stroke-linejoin="round" stroke-linecap="round" stroke-miterlimit="4" stroke-width="2.1818" d="M22.667 2.667h-13.333c-3.682 0-6.667 2.985-6.667 6.667v13.333c0 3.682 2.985 6.667 6.667 6.667h13.333c3.682 0 6.667-2.985 6.667-6.667v-13.333c0-3.682-2.985-6.667-6.667-6.667z">
			</path>
			<path fill="none" stroke="#fff" style="stroke: var(--color1, #fff)" stroke-linejoin="round" stroke-linecap="round" stroke-miterlimit="4" stroke-width="2.1818" d="M21.333 15.16c0.165 1.11-0.025 2.243-0.542 3.239s-1.334 1.803-2.336 2.308c-1.002 0.504-2.138 0.68-3.245 0.502s-2.131-0.701-2.924-1.494-1.316-1.816-1.494-2.924c-0.178-1.107-0.003-2.243 0.502-3.245s1.312-1.82 2.308-2.336c0.996-0.517 2.129-0.706 3.239-0.542 1.132 0.168 2.18 0.695 2.989 1.504s1.337 1.857 1.504 2.989z">
			</path>
			<path fill="none" stroke="#fff" style="stroke: var(--color1, #fff)" stroke-linejoin="round" stroke-linecap="round" stroke-miterlimit="4" stroke-width="2.1818" d="M23.333 8.667h0.015">
			</path>
		</symbol>
		<symbol id="icon-footer-twitter" viewBox="0 0 32 32">
			<path fill="none" stroke="#fff" style="stroke: var(--color1, #fff)" stroke-linejoin="round" stroke-linecap="round" stroke-miterlimit="4" stroke-width="2.1818" d="M30.667 4c-1.277 0.901-2.69 1.589-4.187 2.040-0.803-0.923-1.87-1.578-3.057-1.875s-2.437-0.222-3.58 0.214c-1.143 0.436-2.125 1.213-2.812 2.226s-1.047 2.212-1.031 3.435v1.333c-2.343 0.061-4.665-0.459-6.759-1.513s-4.258-3.563-5.605-5.481c0 0-4.97 12.954 7.030 18.287-2.746 1.864-6.017 2.799-9.333 2.667 12 6.667 26.667 0 26.667-15.333-0.001-0.371-0.037-0.742-0.107-1.107 1.361-1.342 2.321-3.036 2.773-4.893z">
			</path>
		</symbol>
		<symbol id="icon-made" viewBox="0 0 30 32">
			<path fill="#f5f4f4" style="fill: var(--color1, #f5f4f4)" d="M0 32v-32l29.867 16-29.867 16z">
			</path>
		</symbol>
		<symbol id="icon-close" viewBox="0 0 28 28">
			<path d="M21 7L7 21" stroke-width="2" stroke-linecap="round" stroke-linejoin="round" />
			<path d="M7 7L21 21" stroke-width="2" stroke-linecap="round" stroke-linejoin="round" />
		</symbol>
		<symbol id="icon-close-gradient" viewBox="0 0 16 16">
			<path d="M12 4L4 12" stroke="url(#paint0_linear_34_4366)" stroke-width="1.5" stroke-linecap="round" stroke-linejoin="round" />
			<path d="M4 4L12 12" stroke="url(#paint1_linear_34_4366)" stroke-width="1.5" stroke-linecap="round" stroke-linejoin="round" />
			<defs>
				<linearGradient id="paint0_linear_34_4366" x1="8.03478" y1="4" x2="7.76142" y2="11.9918" gradientUnits="userSpaceOnUse">
					<stop stop-color="#F16529" />
					<stop offset="1" stop-color="#D44528" />
				</linearGradient>
				<linearGradient id="paint1_linear_34_4366" x1="8.03478" y1="4" x2="7.76142" y2="11.9918" gradientUnits="userSpaceOnUse">
					<stop stop-color="#F16529" />
					<stop offset="1" stop-color="#D44528" />
				</linearGradient>
			</defs>
		</symbol>
		<symbol id="icon-chocolate" viewBox="0 0 27 32">
			<path fill="none" stroke="#fd9222" style="stroke: var(--color1, #fd9222)" stroke-linejoin="round" stroke-linecap="round" stroke-miterlimit="4" stroke-width="2.7429" d="M20.111 23.118l-14.187-8.864M9.838 7.837l14.185 8.864M9.105 25.102l11.738-19.25M25.653 14.027c-3.040-1.897-4.235-3.383-2.278-6.59l-9.626-6.016-11.738 19.25 14.187 8.864 9.452-15.508z">
			</path>
		</symbol>
		<symbol id="icon-open" viewBox="0 0 48 32">
			<path fill="none" stroke="#111111" style="stroke: var(--color3, #111111)" stroke-linejoin="round" stroke-linecap="round" stroke-miterlimit="4" stroke-width="4" d="M3 16.006h42M3 2.006h42M3 30.006h42">
			</path>
		</symbol>
		<symbol id="icon-klose" viewBox="0 0 32 32">
			<path fill="none" stroke="#fff" style="stroke: var(--color2, #fff)" stroke-linejoin="round" stroke-linecap="round" stroke-miterlimit="4" stroke-width="4" d="M29.345 2.667l-26.678 26.678M2.667 2.667l26.678 26.678">
			</path>
		</symbol>
		<symbol id="icon-instagram" viewBox="0 0 32 32">
			<path fill="none" stroke="#fff" style="stroke: var(--color2, #fff)" stroke-linejoin="round" stroke-linecap="round" stroke-miterlimit="4" stroke-width="2.1818" d="M22.673 2.667h-13.336c-0 0-0.001 0-0.001 0-3.683 0-6.668 2.985-6.668 6.668 0 0.001 0 0.001 0 0.002v-0 13.336c0 0 0 0.001 0 0.001 0 3.683 2.985 6.668 6.668 6.668 0.001 0 0.001 0 0.002 0h13.336c0 0 0.001 0 0.001 0 3.683 0 6.668-2.985 6.668-6.668 0-0 0-0.001 0-0.002v0-13.336c0-0 0-0.001 0-0.001 0-3.683-2.985-6.668-6.668-6.668-0 0-0.001 0-0.002 0h0z">
			</path>
			<path fill="none" stroke="#fff" style="stroke: var(--color2, #fff)" stroke-linejoin="round" stroke-linecap="round" stroke-miterlimit="4" stroke-width="2.1818" d="M21.34 15.164c0.037 0.235 0.058 0.507 0.058 0.783 0 2.947-2.389 5.336-5.336 5.336-2.671 0-4.883-1.962-5.274-4.523l-0.004-0.030c-0.037-0.235-0.058-0.506-0.058-0.782 0-2.947 2.389-5.335 5.335-5.335 2.671 0 4.883 1.962 5.274 4.524l0.004 0.030z">
			</path>
			<path fill="none" stroke="#fff" style="stroke: var(--color2, #fff)" stroke-linejoin="round" stroke-linecap="round" stroke-miterlimit="4" stroke-width="2.1818" d="M21.34 15.164c0.037 0.235 0.058 0.507 0.058 0.783 0 2.947-2.389 5.336-5.336 5.336-2.671 0-4.883-1.962-5.274-4.523l-0.004-0.030c-0.037-0.235-0.058-0.506-0.058-0.782 0-2.947 2.389-5.335 5.335-5.335 2.671 0 4.883 1.962 5.274 4.524l0.004 0.030zM23.34 8.669h0.015M23.34 8.669h0.015">
			</path>
		</symbol>
		<symbol id="icon-x" viewBox="0 0 38 32">
			<path fill="none" stroke="#fff" style="stroke: var(--color2, #fff)" stroke-linejoin="round" stroke-linecap="round" stroke-miterlimit="4" stroke-width="3.2" d="M36.8 1.61c-1.44 1.028-3.109 1.862-4.9 2.415l-0.124 0.033c-1.321-1.513-3.254-2.464-5.409-2.464-3.959 0-7.168 3.209-7.168 7.168 0 0.034 0 0.068 0.001 0.101l-0-0.005v1.6c-0.131 0.004-0.286 0.006-0.441 0.006-2.797 0-5.437-0.673-7.766-1.866l0.096 0.045c-2.512-1.264-5.472-4.275-7.090-6.576 0 0-5.6 15.544 8.8 21.944-2.931 2.013-6.555 3.215-10.46 3.215-0.26 0-0.519-0.005-0.777-0.016l0.037 0.001c14.4 8 32 0 32-18.4 0-0.446-0.045-0.89-0.128-1.328 1.587-1.566 2.752-3.556 3.31-5.787l0.018-0.085z">
			</path>
		</symbol>
	</defs>
</svg>
